<svg width="111" height="18" viewBox="0 0 111 18" fill="none" xmlns="http://www.w3.org/2000/svg">
<path d="M3.51172 10.9414V17H0.0546875V0.488281H12.2305V3.16016H3.51172V8.26953H11.9609V10.9414H3.51172ZM26.8438 10.6484C26.8438 12.7031 26.2734 14.3164 25.1328 15.4883C23.9922 16.6523 22.4141 17.2344 20.3984 17.2344C18.4219 17.2344 16.8711 16.6484 15.7461 15.4766C14.6211 14.3047 14.0586 12.6953 14.0586 10.6484C14.0586 8.60938 14.6211 7.00781 15.7461 5.84375C16.8711 4.67188 18.4453 4.08594 20.4688 4.08594C22.5391 4.08594 24.1172 4.65234 25.2031 5.78516C26.2969 6.91016 26.8438 8.53125 26.8438 10.6484ZM23.3984 10.6484C23.3984 9.14062 23.1523 8.04688 22.6602 7.36719C22.168 6.6875 21.4531 6.34766 20.5156 6.34766C19.5156 6.34766 18.7656 6.70703 18.2656 7.42578C17.7656 8.13672 17.5156 9.21094 17.5156 10.6484C17.5156 12.0625 17.7578 13.1406 18.2422 13.8828C18.7344 14.6172 19.4414 14.9844 20.3633 14.9844C21.3789 14.9844 22.1367 14.625 22.6367 13.9062C23.1445 13.1797 23.3984 12.0938 23.3984 10.6484ZM32.7617 10.7773V17H29.4688V7.29688C29.4688 6.60156 29.457 6.02344 29.4336 5.5625C29.418 5.09375 29.3984 4.67969 29.375 4.32031H32.5156C32.5312 4.39062 32.5469 4.54687 32.5625 4.78906C32.5781 5.03125 32.5938 5.30469 32.6094 5.60938C32.625 5.90625 32.6367 6.1875 32.6445 6.45312C32.6602 6.71875 32.668 6.91016 32.668 7.02734H32.7148C33.0273 6.15234 33.3125 5.52344 33.5703 5.14062C33.8203 4.77344 34.1172 4.50391 34.4609 4.33203C34.8047 4.16016 35.2344 4.07422 35.75 4.07422C36.1719 4.07422 36.5117 4.13281 36.7695 4.25V7.00391C36.2461 6.88672 35.7773 6.82812 35.3633 6.82812C34.543 6.82812 33.9023 7.16016 33.4414 7.82422C32.9883 8.48828 32.7617 9.47266 32.7617 10.7773ZM48.2773 14.5977V17H38.1055V14.668L44.0703 6.69922H38.5859V4.32031H47.7031V6.67578L41.7734 14.5977H48.2773ZM53.75 17.2344C52.5234 17.2344 51.5664 16.9023 50.8789 16.2383C50.1914 15.5664 49.8477 14.625 49.8477 13.4141C49.8477 12.1016 50.2734 11.1055 51.125 10.4258C51.9844 9.74609 53.2266 9.39062 54.8516 9.35938L57.582 9.3125V8.66797C57.582 7.83984 57.4375 7.22656 57.1484 6.82812C56.8594 6.42188 56.3867 6.21875 55.7305 6.21875C55.1211 6.21875 54.6719 6.35938 54.3828 6.64062C54.1016 6.91406 53.9258 7.37109 53.8555 8.01172L50.4219 7.84766C50.8516 5.33984 52.668 4.08594 55.8711 4.08594C57.4727 4.08594 58.707 4.48047 59.5742 5.26953C60.4414 6.05859 60.875 7.17969 60.875 8.63281V13.25C60.875 13.9609 60.9531 14.4531 61.1094 14.7266C61.2734 14.9922 61.543 15.125 61.918 15.125C62.168 15.125 62.4102 15.1016 62.6445 15.0547V16.8359C62.2383 16.9375 61.8906 17.0117 61.6016 17.0586C61.3125 17.1133 60.957 17.1406 60.5352 17.1406C59.707 17.1406 59.0938 16.9375 58.6953 16.5312C58.3047 16.125 58.0703 15.5273 57.9922 14.7383H57.9219C57.4609 15.5664 56.8828 16.1914 56.1875 16.6133C55.4922 17.0273 54.6797 17.2344 53.75 17.2344ZM57.582 11.1289L55.8945 11.1523C55.1211 11.1914 54.5781 11.2734 54.2656 11.3984C53.9453 11.5391 53.6992 11.75 53.5273 12.0312C53.3633 12.3125 53.2812 12.6875 53.2812 13.1562C53.2812 13.7578 53.418 14.207 53.6914 14.5039C53.9727 14.793 54.3438 14.9375 54.8047 14.9375C55.3203 14.9375 55.793 14.7969 56.2227 14.5156C56.6445 14.2344 56.9766 13.8477 57.2188 13.3555C57.4609 12.8555 57.582 12.3281 57.582 11.7734V11.1289Z" fill="#E83B04"/>
<path d="M67.5664 10.9766V17H64.1094V0.488281H67.5664V7.97656L75.0078 0.488281H79.0391L71.9844 7.47266L79.6133 17H75.5352L69.6055 9.41797L67.5664 10.9766ZM84.4531 17.2344C83.2266 17.2344 82.2695 16.9023 81.582 16.2383C80.8945 15.5664 80.5508 14.625 80.5508 13.4141C80.5508 12.1016 80.9766 11.1055 81.8281 10.4258C82.6875 9.74609 83.9297 9.39062 85.5547 9.35938L88.2852 9.3125V8.66797C88.2852 7.83984 88.1406 7.22656 87.8516 6.82812C87.5625 6.42188 87.0898 6.21875 86.4336 6.21875C85.8242 6.21875 85.375 6.35938 85.0859 6.64062C84.8047 6.91406 84.6289 7.37109 84.5586 8.01172L81.125 7.84766C81.5547 5.33984 83.3711 4.08594 86.5742 4.08594C88.1758 4.08594 89.4102 4.48047 90.2773 5.26953C91.1445 6.05859 91.5781 7.17969 91.5781 8.63281V13.25C91.5781 13.9609 91.6562 14.4531 91.8125 14.7266C91.9766 14.9922 92.2461 15.125 92.6211 15.125C92.8711 15.125 93.1133 15.1016 93.3477 15.0547V16.8359C92.9414 16.9375 92.5938 17.0117 92.3047 17.0586C92.0156 17.1133 91.6602 17.1406 91.2383 17.1406C90.4102 17.1406 89.7969 16.9375 89.3984 16.5312C89.0078 16.125 88.7734 15.5273 88.6953 14.7383H88.625C88.1641 15.5664 87.5859 16.1914 86.8906 16.6133C86.1953 17.0273 85.3828 17.2344 84.4531 17.2344ZM88.2852 11.1289L86.5977 11.1523C85.8242 11.1914 85.2812 11.2734 84.9688 11.3984C84.6484 11.5391 84.4023 11.75 84.2305 12.0312C84.0664 12.3125 83.9844 12.6875 83.9844 13.1562C83.9844 13.7578 84.1211 14.207 84.3945 14.5039C84.6758 14.793 85.0469 14.9375 85.5078 14.9375C86.0234 14.9375 86.4961 14.7969 86.9258 14.5156C87.3477 14.2344 87.6797 13.8477 87.9219 13.3555C88.1641 12.8555 88.2852 12.3281 88.2852 11.7734V11.1289ZM98.1758 10.7773V17H94.8828V7.29688C94.8828 6.60156 94.8711 6.02344 94.8477 5.5625C94.832 5.09375 94.8125 4.67969 94.7891 4.32031H97.9297C97.9453 4.39062 97.9609 4.54687 97.9766 4.78906C97.9922 5.03125 98.0078 5.30469 98.0234 5.60938C98.0391 5.90625 98.0508 6.1875 98.0586 6.45312C98.0742 6.71875 98.082 6.91016 98.082 7.02734H98.1289C98.4414 6.15234 98.7266 5.52344 98.9844 5.14062C99.2344 4.77344 99.5312 4.50391 99.875 4.33203C100.219 4.16016 100.648 4.07422 101.164 4.07422C101.586 4.07422 101.926 4.13281 102.184 4.25V7.00391C101.66 6.88672 101.191 6.82812 100.777 6.82812C99.957 6.82812 99.3164 7.16016 98.8555 7.82422C98.4023 8.48828 98.1758 9.47266 98.1758 10.7773ZM110.258 16.8125C109.461 17.0781 108.535 17.2109 107.48 17.2109C106.512 17.2109 105.766 16.9492 105.242 16.4258C104.719 15.8945 104.457 15.0938 104.457 14.0234V6.54688H102.852V4.32031H104.621L105.652 1.34375H107.715V4.32031H110.117V6.54688H107.715V13.1328C107.715 13.75 107.832 14.207 108.066 14.5039C108.301 14.793 108.664 14.9375 109.156 14.9375C109.391 14.9375 109.758 14.8828 110.258 14.7734V16.8125Z" fill="#E8E8E8"/>
</svg>
