<svg width="91" height="60" viewBox="0 0 91 60" fill="none" xmlns="http://www.w3.org/2000/svg">
<path d="M52.6964 22.1399L74.0627 19.7045C74.0627 19.7045 83.1406 0 68.5278 0C53.9148 0 52.6971 8.41361 52.6971 8.41361C52.6971 8.41361 52.5866 9.29904 54.1364 9.18854C55.6863 8.96683 62.55 7.5282 62.7717 8.63531C62.9934 9.74245 63.7684 17.0489 62.1073 17.2706C60.447 17.6028 53.3615 17.6028 52.5865 18.0455C51.8102 18.4869 52.6963 22.1405 52.6963 22.1405L52.6964 22.1399Z" fill="white"/>
<path d="M61.8858 22.5828C65.9821 20.7008 77.9382 22.2506 75.5029 25.4615C73.0675 28.6717 60.6682 42.621 60.6682 42.621L57.2363 33.2106C57.2363 33.2106 61.0003 31.4391 63.5462 30.2214L62.5496 29.6682L53.8038 33.5427C53.8038 33.5427 50.5936 35.0926 47.2722 33.9855C43.9508 32.8783 37.4192 29.8892 36.312 29.1142C35.2048 28.3392 34.7622 26.125 35.4266 24.9073C36.091 23.6897 37.4191 22.472 39.744 23.468C42.0687 24.4646 50.0396 27.5642 50.0396 27.5642C50.0403 27.5642 57.1251 24.7967 61.8858 22.5825L61.8858 22.5828Z" fill="white"/>
<path d="M14.1768 41.3303L34.8599 23.6149L35.7237 24.624L15.0407 42.3394L14.1768 41.3303Z" fill="white"/>
<path d="M39.5232 29.8882C39.0805 30.3309 38.3056 30.2204 37.9734 29.7777L30.1129 20.5891C29.6702 20.1463 29.7807 19.3714 30.2234 19.0392C30.6661 18.5965 31.4411 18.707 31.7733 19.1497L39.6337 28.3384C40.0771 28.7811 39.9659 29.4455 39.5232 29.8882Z" fill="white"/>
<path d="M5.97833 51.9182C5.97833 46.6043 10.2957 42.2869 15.6096 42.2869H16.495C15.7201 41.0692 14.8347 39.6298 13.7275 37.9695C1.10701 42.5086 0 52.3615 0 52.3615L0.442715 56.5684H7.19599C6.42106 55.2396 5.97835 53.5792 5.97835 51.9182H5.97833Z" fill="white"/>
<path d="M54.3562 34.9803L45.6104 40.5152L36.7541 33.9836C36.7541 33.9836 33.9866 30.2195 29.337 33.9836C26.5695 36.1978 21.92 40.0725 18.5988 42.9503C21.1451 43.8358 23.2483 45.9395 24.2448 48.4852L32.6584 41.9536L41.847 50.9204C41.847 50.9204 40.1867 43.614 45.0572 42.6173C50.039 41.6206 56.7922 42.6173 56.7922 42.6173L54.3562 34.9803Z" fill="white"/>
<path d="M78.9341 37.6385L80.5944 29.778L75.8344 28.0065L60.9997 44.7232C60.9997 44.7232 49.4864 44.0588 47.826 44.0588C46.1657 44.0588 44.8368 44.2805 43.841 46.0513C42.8444 47.7116 43.841 50.8113 43.841 50.8113H25.131C25.131 51.1436 25.2416 51.4758 25.2416 51.9185C25.2416 53.5788 24.7988 55.2399 24.0239 56.568H67.5322C66.7573 55.2399 66.3146 53.5788 66.3146 51.9185C66.3146 46.6046 70.6319 42.2872 75.9458 42.2872C81.2597 42.2872 85.5771 46.6046 85.5771 51.9185C85.5771 53.5788 85.1344 55.2399 84.3595 56.568H90.3379L90.6701 53.4683C91.3332 38.9672 78.9344 37.6383 78.9344 37.6383L78.9341 37.6385Z" fill="white"/>
<path d="M15.2781 43.8372C10.8495 43.8372 7.19669 47.4907 7.19669 51.9186C7.19669 56.3472 10.8503 60 15.2781 60C19.7067 60 23.3596 56.3465 23.3596 51.9186C23.3596 47.4907 19.7067 43.8372 15.2781 43.8372V43.8372ZM15.2781 55.0183C13.5066 55.0183 12.1784 53.579 12.1784 51.9186C12.1784 50.1471 13.6178 48.8189 15.2781 48.8189C17.0497 48.8189 18.3778 50.2582 18.3778 51.9186C18.3778 53.6901 17.0497 55.0183 15.2781 55.0183Z" fill="white"/>
<path d="M75.8346 43.8372C71.406 43.8372 67.7532 47.4907 67.7532 51.9186C67.7532 56.3472 71.4067 60 75.8346 60C80.2632 60 83.9161 56.3465 83.9161 51.9186C83.9161 47.4907 80.2632 43.8372 75.8346 43.8372V43.8372ZM75.8346 55.0183C74.0631 55.0183 72.7349 53.579 72.7349 51.9186C72.7349 50.1471 74.1742 48.8189 75.8346 48.8189C77.6062 48.8189 78.9343 50.2582 78.9343 51.9186C78.9343 53.6901 77.6062 55.0183 75.8346 55.0183Z" fill="white"/>
</svg>
