<svg width="597" height="586" viewBox="0 0 597 586" fill="none" xmlns="http://www.w3.org/2000/svg">
<path d="M326.364 15C326.364 15 -31.5 47.5 77.9998 136C162 195 595 137.5 595 248.5C595 359.5 -35.5 258.5 77.9998 345.854C183.5 398 595 360.354 595 455.354C595 550.355 326.364 584 326.364 584" stroke="black" stroke-opacity="0.4" stroke-width="3" stroke-linecap="round" stroke-linejoin="round"/>
<path d="M250.364 2C250.364 2 2 18.8545 2 126.854C2 234.854 496 138.5 500 238.854C487.5 332.854 2 223.354 2 332.854C2 442.354 500 361 500 456C500 551 247 554 247 554" stroke="black" stroke-opacity="0.4" stroke-width="3" stroke-linecap="round" stroke-linejoin="round"/>
</svg>
