<svg width="72" height="72" viewBox="0 0 72 72" fill="none" xmlns="http://www.w3.org/2000/svg">
<path d="M71.2799 39.2576V33.1418C71.2799 31.6451 70.5335 30.3161 69.3992 29.499C70.1314 28.3079 70.307 26.7942 69.7295 25.4138L67.3702 19.7706C66.8135 18.4395 65.6776 17.5196 64.3755 17.1723C64.5494 15.8363 64.1299 14.4363 63.1095 13.4153L58.7842 9.08997C57.7259 8.03177 56.2587 7.61941 54.8788 7.84474C54.5551 6.48467 53.6096 5.2903 52.2243 4.72204L46.5652 2.4C45.2303 1.85203 43.7767 2.00571 42.6108 2.68055C41.7872 1.61305 40.5004 0.919067 39.0577 0.919067H32.9404C31.4437 0.919067 30.1147 1.66445 29.2987 2.79983C28.1071 2.06701 26.5951 1.89201 25.2135 2.46896L19.5699 4.82824C18.2377 5.38497 17.3189 6.52196 16.9722 7.82298C15.6361 7.64962 14.2361 8.06908 13.2162 9.0901L8.89093 13.4154C7.83164 14.4736 7.42037 15.9409 7.64516 17.3207C6.28509 17.6455 5.09072 18.5905 4.52246 19.9764L2.20042 25.6343C1.65244 26.9703 1.80503 28.424 2.48096 29.5888C1.41401 30.4113 0.719482 31.6974 0.719482 33.1418V39.2581C0.719482 40.7554 1.46487 42.0839 2.59968 42.9009C1.86741 44.092 1.69241 45.6046 2.27046 46.9861L4.62862 52.6294C5.18589 53.9616 6.32234 54.8809 7.62336 55.2277C7.44945 56.5637 7.86945 57.9637 8.89047 58.9847L13.2158 63.31C14.2734 64.3693 15.7401 64.7806 17.12 64.5552C17.4448 65.9153 18.3898 67.1097 19.7756 67.6779L25.4336 70C26.7685 70.5479 28.2232 70.3943 29.388 69.7194C30.2111 70.7864 31.4967 71.4803 32.9405 71.4803H39.0578C40.5536 71.4803 41.8836 70.7349 42.6995 69.5996C43.8906 70.3318 45.4032 70.5074 46.7847 69.9299L52.428 67.5706C53.7591 67.0139 54.6789 65.8769 55.0257 64.5759C56.3622 64.7492 57.7617 64.3298 58.7827 63.3088L63.108 58.9835C64.1662 57.9242 64.5786 56.458 64.3538 55.0782C65.7133 54.7533 66.9088 53.8072 67.4765 52.4225L69.798 46.7645C70.3459 45.4285 70.1934 43.976 69.518 42.8101C70.5855 41.9871 71.28 40.7014 71.28 39.2576L71.2799 39.2576ZM35.9999 58.0974C23.9052 58.0974 14.0997 48.2936 14.0997 36.1986C14.0997 24.1036 23.9046 14.2984 35.9999 14.2984C48.0941 14.2984 57.8987 24.1022 57.8987 36.1986C57.8987 48.2933 48.0944 58.0974 35.9999 58.0974ZM22.5631 34.8882H28.0177C29.4078 34.8882 30.103 33.2065 29.1218 32.2244L25.1745 28.2771C24.4515 27.5541 23.2309 27.704 22.7213 28.5899C21.9453 29.944 21.3705 31.4272 21.0358 32.9999C20.828 33.9712 21.5696 34.8882 22.5632 34.8882L22.5631 34.8882ZM28.0171 38.3805H22.7769C21.7477 38.3805 20.9902 39.3605 21.2687 40.3497C21.675 41.7924 22.2853 43.1503 23.0695 44.3868C23.6087 45.235 24.7905 45.3744 25.5015 44.664L29.1212 41.0443C30.1033 40.0605 29.4077 38.3806 28.017 38.3806L28.0171 38.3805ZM40.4099 29.7547L44.4661 25.6984C45.1716 24.993 45.0447 23.8128 44.2042 23.2774C42.8304 22.4041 41.3075 21.744 39.6821 21.3432C38.6971 21.1004 37.745 21.8463 37.745 22.8602V28.6516C37.7461 30.0412 39.4267 30.7379 40.4099 29.7547L40.4099 29.7547ZM31.5899 29.7547C32.5732 30.7379 34.2537 30.0418 34.2537 28.6505V22.8592C34.2537 21.8452 33.301 21.0994 32.3167 21.3421C30.6935 21.743 29.1699 22.403 27.7945 23.2763C26.954 23.8117 26.8271 24.9919 27.5326 25.6974L31.5899 29.7547ZM31.5899 43.5129L28.0784 47.0238C27.3522 47.7511 27.513 48.9729 28.406 49.4847C29.6206 50.1804 30.9386 50.7125 32.3309 51.0554C33.3109 51.296 34.2542 50.5435 34.2542 49.5361V44.6175C34.2537 43.2262 32.5731 42.5301 31.5899 43.5128L31.5899 43.5129ZM49.2243 38.3805H43.9826C42.5924 38.3805 41.8973 40.0616 42.8801 41.0443L46.4998 44.664C47.2085 45.3749 48.3909 45.2354 48.93 44.3867C49.7143 43.1497 50.3262 41.7935 50.7309 40.3497C51.0098 39.3593 50.2518 38.3804 49.2242 38.3804L49.2243 38.3805ZM46.8279 28.2758L42.8807 32.2243C41.8974 33.2075 42.593 34.888 43.9832 34.888H49.4377C50.4319 34.888 51.173 33.9715 50.9657 32.9992C50.6315 31.4264 50.0562 29.9432 49.2802 28.5892C48.7694 27.7032 47.5505 27.5534 46.8279 28.2758V28.2758ZM36.0003 15.9958C24.8605 15.9958 15.7983 25.0585 15.7983 36.1977C15.7983 47.337 24.8605 56.3997 36.0003 56.3997C47.1401 56.3997 56.2024 47.337 56.2024 36.1977C56.2024 25.0585 47.1401 15.9958 36.0003 15.9958V15.9958ZM36.0003 53.5927C26.4103 53.5927 18.6067 45.7894 18.6067 36.1977C18.6067 26.6061 26.4101 18.8041 36.0003 18.8041C45.592 18.8041 53.3954 26.6063 53.3954 36.1977C53.3954 45.7883 45.5915 53.5927 36.0003 53.5927ZM40.7319 36.1977C40.7319 33.5848 38.6127 31.4662 36.0003 31.4662C33.3879 31.4662 31.2688 33.5848 31.2688 36.1977C31.2688 38.8107 33.3879 40.9293 36.0003 40.9293C38.6127 40.9293 40.7319 38.8107 40.7319 36.1977ZM40.4104 43.5133C39.4271 42.5295 37.7466 43.2262 37.7466 44.6164V49.535C37.7466 50.5434 38.691 51.2959 39.6699 51.0543C41.0617 50.7119 42.3802 50.1787 43.5948 49.4836C44.4879 48.9723 44.6503 47.75 43.9224 47.0227L40.4104 43.5133Z" fill="black"/>
</svg>
